<svg xmlns="http://www.w3.org/2000/svg" version="1.1" xmlns:xlink="http://www.w3.org/1999/xlink" xmlns:svgjs="http://svgjs.dev/svgjs" width="1000" height="1000" viewBox="0 0 1000 1000"><rect width="1000" height="1000" fill="#060606"></rect><g transform="matrix(0.7,0,0,0.7,151.0870504662779,422.1519961423538)"><svg viewBox="0 0 396 90" data-background-color="#060606" preserveAspectRatio="xMidYMid meet" height="227" width="1000" xmlns="http://www.w3.org/2000/svg" xmlns:xlink="http://www.w3.org/1999/xlink"><g id="tight-bounds" transform="matrix(1,0,0,1,0.2400000000000091,0.057158770747065546)"><svg viewBox="0 0 395.52 89.88181483724469" height="89.88181483724469" width="395.52"><g><svg viewBox="0 0 551.6172550598807 125.35487454571545" height="89.88181483724469" width="395.52"><g><rect width="4.930138268854377" height="91.15893554156584" x="138.2609956683709" y="17.097969502074804" fill="#ffffff" opacity="1" stroke-width="0" stroke="transparent" fill-opacity="1" class="rect-s$-0" data-fill-palette-color="primary" rx="1%" id="s$-0" data-palette-color="#ffffff"></rect></g><g transform="matrix(1,0,0,1,156.0972550598807,17.324733023322473)"><svg viewBox="0 0 395.52 90.7054084990705" height="90.7054084990705" width="395.52"><g id="textblocktransform"><svg viewBox="0 0 395.52 90.7054084990705" height="90.7054084990705" width="395.52" id="textblock"><g><svg viewBox="0 0 395.52 54.66934852613327" height="54.66934852613327" width="395.52"><g transform="matrix(1,0,0,1,0,0)"><svg width="395.52" viewBox="4.31 -31.61 231.99 32.07" height="54.66934852613327" data-palette-color="#ffffff"><path d="M13.97-13.68L8.16-13.68 8.16-1.9Q8.16-0.52 6.9-0.11L6.9-0.11Q6.55 0 6.03 0 5.52 0 4.91-0.46 4.31-0.92 4.31-1.9L4.31-1.9 4.31-29.43Q4.31-30.57 5.52-31.21L5.52-31.21Q5.86-31.38 6.32-31.38L6.32-31.38 14.14-31.38Q23.91-31.38 26.03-25.4L26.03-25.4Q26.55-24.02 26.55-22.47 26.55-20.92 26.09-19.6 25.63-18.28 24.77-17.24 23.91-16.21 22.7-15.57 21.49-14.94 20.11-14.48L20.11-14.48Q17.41-13.68 13.97-13.68L13.97-13.68ZM8.16-16.78L14.66-16.78Q18.39-16.78 20.17-18.05L20.17-18.05Q22.53-19.54 22.53-22.59L22.53-22.59Q22.53-25.52 20.17-27.01L20.17-27.01Q18.39-28.16 14.71-28.28L14.71-28.28 8.16-28.28 8.16-16.78ZM51.2 0L34.31 0Q33.62 0 33.16-0.46L33.16-0.46Q32.35-1.15 32.35-1.9L32.35-1.9 32.35-29.43Q32.35-30.52 33.5-31.15L33.5-31.15Q33.85-31.26 34.19-31.38L34.19-31.38 50.57-31.38Q51.43-31.38 51.84-30.86 52.24-30.34 52.24-29.74 52.24-29.14 51.78-28.62 51.32-28.1 50.57-28.1L50.57-28.1 36.15-28.1 36.15-17.7 49.88-17.7Q50.74-17.7 51.15-17.21 51.55-16.72 51.55-16.09L51.55-16.09Q51.55-15.52 51.09-15.06 50.63-14.6 49.88-14.6L49.88-14.6 36.15-14.6 36.15-3.22 51.2-3.22Q52.01-3.22 52.41-2.7 52.81-2.18 52.81-1.55 52.81-0.92 52.38-0.46 51.95 0 51.2 0L51.2 0ZM66.26-28.1L57.7-28.1Q56.83-28.1 56.43-28.62 56.03-29.14 56.03-29.74 56.03-30.34 56.43-30.86 56.83-31.38 57.7-31.38L57.7-31.38 78.67-31.38Q79.48-31.38 79.88-30.86 80.28-30.34 80.28-29.74 80.28-29.14 79.85-28.62 79.42-28.1 78.67-28.1L78.67-28.1 70.17-28.1 70.17-1.9Q70.17-0.57 69.02-0.11L69.02-0.11Q68.67 0 68.1 0 67.52 0 66.89-0.46 66.26-0.92 66.26-1.9L66.26-1.9 66.26-28.1ZM87.92-23.45L87.92-23.45Q87.92-22.24 88.73-21.18 89.53-20.11 90.8-19.43 92.06-18.74 93.67-18.22 95.28-17.7 97.06-17.13 98.84-16.55 100.57-15.86 102.29-15.17 103.56-14.14L103.56-14.14Q106.31-11.9 106.31-8.05L106.31-8.05Q106.31-6.21 105.45-4.57 104.59-2.93 103.04-1.84L103.04-1.84Q99.88 0.46 94.59 0.46L94.59 0.46Q89.59 0.46 85.8-2.07L85.8-2.07Q83.44-3.56 83.44-4.6L83.44-4.6Q83.44-5.52 84.36-6.09L84.36-6.09Q84.59-6.32 84.94-6.32 85.28-6.32 85.68-6.03 86.08-5.75 86.63-5.34 87.18-4.94 88.01-4.45 88.84-3.97 89.76-3.56L89.76-3.56Q92.06-2.64 94.25-2.7 96.43-2.76 97.75-3.05 99.07-3.33 100.11-4.02L100.11-4.02Q102.29-5.52 102.35-7.82L102.35-7.82Q102.35-10.69 99.53-12.24L99.53-12.24Q98.27-12.93 96.69-13.48 95.11-14.02 93.35-14.54 91.6-15.06 89.88-15.8 88.15-16.55 86.83-17.59L86.83-17.59Q84.02-19.83 84.02-23.33L84.02-23.33Q84.02-25.17 84.91-26.78 85.8-28.39 87.35-29.43L87.35-29.43Q90.34-31.55 94.82-31.61L94.82-31.61Q101.31-31.61 105.28-27.41L105.28-27.41Q105.51-27.07 105.51-26.64 105.51-26.21 105.48-25.92 105.45-25.63 105.16-25.34L105.16-25.34Q104.76-24.83 104.1-24.83 103.44-24.83 102.69-25.69L102.69-25.69Q100.8-27.07 99.65-27.47L99.65-27.47Q97.35-28.39 95.16-28.39L95.16-28.39Q92.35-28.39 90.34-27.24L90.34-27.24Q87.92-25.86 87.92-23.45ZM122.86-15.52L122.86-15.52Q122.86-18.51 123.72-21.55 124.59-24.6 126.37-26.78L126.37-26.78Q130.16-31.61 137.17-31.61L137.17-31.61Q141.19-31.61 144.99-29.83L144.99-29.83Q145.96-29.43 145.96-28.51L145.96-28.51Q145.96-26.78 144.59-26.72L144.59-26.72Q144.3-26.72 144.07-26.78L144.07-26.78Q140.1-28.16 137.77-28.16 135.45-28.16 133.9-27.64 132.34-27.13 131.19-26.21 130.04-25.29 129.24-24.08 128.44-22.87 127.98-21.38L127.98-21.38Q127-18.62 127-15.52L127-15.52Q127-10.46 129.24-7.01L129.24-7.01Q131.88-2.93 137.4-2.93L137.4-2.93Q141.19-2.93 144.64-4.94L144.64-4.94Q145.1-5.06 145.53-5.06 145.96-5.06 146.34-4.66 146.71-4.25 146.71-3.62 146.71-2.99 146.25-2.44 145.79-1.9 145.02-1.47 144.24-1.03 143.29-0.69 142.34-0.34 141.31-0.11L141.31-0.11Q139.13 0.46 137.17 0.46L137.17 0.46Q130.1 0.46 126.37-4.31L126.37-4.31Q122.86-8.62 122.86-15.52ZM169.47-27.93L180.04-2.41Q180.1-2.07 180.1-1.72 180.1-1.38 179.93-1.03 179.76-0.69 179.47-0.52L179.47-0.52Q178.89 0 178.2 0L178.2 0Q176.82 0 176.36-1.21L176.36-1.21 173.55-8.16 158.03-8.16 155.27-1.21Q154.87 0 153.66 0 152.46 0 151.82-1.03L151.82-1.03Q151.65-1.38 151.65-1.67 151.65-1.95 151.82-2.41L151.82-2.41 162.23-27.93Q163.38-30.8 164.87-31.21L164.87-31.21Q165.27-31.26 165.9-31.38L165.9-31.38Q167.05-31.38 167.63-30.86L167.63-30.86Q168.55-30.17 169.47-27.93L169.47-27.93ZM165.79-28.1L159.12-11.21 172.51-11.21 165.79-28.1ZM185.5-1.9L185.5-29.43Q185.5-30.57 186.76-31.21L186.76-31.21Q187.11-31.38 187.51-31.38L187.51-31.38 196.88-31.38Q204.47-31.38 207.11-27.36L207.11-27.36Q208.03-25.69 208.03-23.13 208.03-20.57 206.36-18.79 204.7-17.01 201.59-16.38L201.59-16.38 201.59-16.21Q204.58-15.69 205.84-13.97L205.84-13.97Q206.82-12.53 207.08-10.11 207.34-7.7 207.51-6.32L207.51-6.32Q207.68-4.31 207.86-1.9L207.86-1.9Q207.86-0.92 207.25-0.46 206.65 0 205.9 0 205.15 0 204.58-0.43 204.01-0.86 203.89-1.72L203.89-1.72Q203.66-4.37 203.49-6.41 203.32-8.45 203.09-9.86 202.86-11.26 202.45-12.18 202.05-13.1 201.36-13.62L201.36-13.62Q200.21-14.48 196.82-14.6L196.82-14.6 189.41-14.6 189.41-1.9Q189.41-0.52 188.2-0.11L188.2-0.11Q187.86 0 187.31 0 186.76 0 186.13-0.46 185.5-0.92 185.5-1.9L185.5-1.9ZM189.41-17.59L195.15-17.59Q200.61-17.59 202.51-19.31L202.51-19.31Q203.89-20.52 204.01-22.93L204.01-22.93Q204.01-26.32 201.48-27.41L201.48-27.41Q200.1-28.1 198.72-28.19 197.34-28.28 196.53-28.28L196.53-28.28 189.41-28.28 189.41-17.59ZM234.69 0L217.8 0Q217.11 0 216.65-0.46L216.65-0.46Q215.84-1.15 215.84-1.9L215.84-1.9 215.84-29.43Q215.84-30.52 216.99-31.15L216.99-31.15Q217.34-31.26 217.68-31.38L217.68-31.38 234.06-31.38Q234.92-31.38 235.32-30.86 235.73-30.34 235.73-29.74 235.73-29.14 235.27-28.62 234.81-28.1 234.06-28.1L234.06-28.1 219.64-28.1 219.64-17.7 233.37-17.7Q234.23-17.7 234.64-17.21 235.04-16.72 235.04-16.09L235.04-16.09Q235.04-15.52 234.58-15.06 234.12-14.6 233.37-14.6L233.37-14.6 219.64-14.6 219.64-3.22 234.69-3.22Q235.5-3.22 235.9-2.7 236.3-2.18 236.3-1.55 236.3-0.92 235.87-0.46 235.44 0 234.69 0L234.69 0Z" opacity="1" transform="matrix(1,0,0,1,0,0)" fill="#ffffff" class="undefined-text-0" data-fill-palette-color="primary" id="text-0"></path></svg></g></svg></g><g transform="matrix(1,0,0,1,0,67.57546964878871)"><svg viewBox="0 0 232.209792 23.129938850281796" height="23.129938850281796" width="232.209792"><g transform="matrix(1,0,0,1,0,0)"><svg width="232.209792" viewBox="1.75 -32.7 408.05 40.650000000000006" height="23.129938850281796" data-palette-color="#f186ba"><path d="M25.9 0L24.95 0 24.9-0.7Q24.85-1.75 24.1-1.75L24.1-1.75Q23.7-1.75 22.65-1.2L22.65-1.2Q19.4 0.6 16.1 0.6L16.1 0.6Q9.8 0.6 5.78-3.75 1.75-8.1 1.75-15.73 1.75-23.35 5.73-27.73 9.7-32.1 16.1-32.1L16.1-32.1Q19.35-32.1 22.6-30.45L22.6-30.45Q23.65-29.9 24.1-29.9L24.1-29.9Q24.85-29.9 24.9-30.95L24.9-30.95 24.95-31.8 25.9-31.8 25.9-23.15 25-23.15Q24.55-27 22.13-28.83 19.7-30.65 16.1-30.65L16.1-30.65Q11.55-30.65 8.78-26.65 6-22.65 6-15.7 6-8.75 8.8-4.8 11.6-0.85 16.1-0.85L16.1-0.85Q19.7-0.85 22.13-2.68 24.55-4.5 25-8.35L25-8.35 25.9-8.35 25.9 0ZM42.9-22.2Q44.85-22.2 46.07-20.55 47.3-18.9 47.3-16.4 47.3-13.9 45.25-13.9L45.25-13.9Q44.05-13.9 43.3-14.65L43.3-14.65Q43.95-16.1 43.95-17.6L43.95-17.6Q43.95-20.25 41.75-20.25L41.75-20.25Q39.9-20.25 38.47-17.18 37.05-14.1 37.05-8.25L37.05-8.25 37.05-1.6Q37.05-0.9 37.75-0.9L37.75-0.9 41.1-0.9 41.1 0 30.4 0 30.4-0.9 32.75-0.9Q33.45-0.9 33.45-1.6L33.45-1.6 33.45-20Q33.45-20.7 32.75-20.7L32.75-20.7 30.4-20.7 30.4-21.6 32.85-21.6Q35.85-21.6 37.05-21.9L37.05-21.9 37.05-15.5Q37.85-18.95 39.4-20.58 40.95-22.2 42.9-22.2ZM59.65-22.2L59.65-22.2Q63.09-22.2 65.09-19.9 67.09-17.6 67.09-13.15L67.09-13.15Q67.09-12.25 67-11.15L67-11.15 53.34-11.15 53.34-10.8Q53.34-6.05 55.07-3.33 56.8-0.6 59.52-0.6 62.25-0.6 64-2 65.75-3.4 66.4-6L66.4-6 67.34-5.8Q66.75-2.75 64.59-1.07 62.45 0.6 59.65 0.6L59.65 0.6Q55.3 0.6 52.42-2.45 49.55-5.5 49.55-10.78 49.55-16.05 52.45-19.13 55.34-22.2 59.65-22.2ZM63.65-14.85L63.65-14.85Q63.65-21 59.05-21L59.05-21Q56.75-21 55.12-18.5 53.5-16 53.4-12.15L53.4-12.15 63.45-12.15Q63.65-13.85 63.65-14.85ZM83.89-11.2L83.89-11.65 83.94-13.4 83.94-15.15Q83.94-21 80.14-21L80.14-21Q78.49-21 77.57-19.88 76.64-18.75 76.64-17.25 76.64-15.75 77.04-14.65L77.04-14.65Q76.19-13.9 74.69-13.9 73.19-13.9 73.19-16.35 73.19-18.8 75.12-20.5 77.04-22.2 80.59-22.2L80.59-22.2Q87.54-22.2 87.54-14L87.54-14 87.54-3.75Q87.54-1.05 89.04-1.05L89.04-1.05Q89.74-1.05 90.27-1.7 90.79-2.35 90.79-3.2 90.79-4.05 90.64-4.8L90.64-4.8 91.59-4.95Q91.79-4.2 91.79-3.3L91.79-3.3Q91.79-1.5 90.72-0.45 89.64 0.6 87.89 0.6 86.14 0.6 85.04-0.83 83.94-2.25 83.94-5.1L83.94-5.1 83.94-6Q83.09-2.6 81.24-1 79.39 0.6 76.97 0.6 74.54 0.6 73.07-0.93 71.59-2.45 71.59-4.98 71.59-7.5 73.94-9.47 76.29-11.45 80.69-11.45L80.69-11.45Q81.64-11.45 83.89-11.2L83.89-11.2ZM78.09-1.3L78.09-1.3Q80.19-1.3 81.87-3.68 83.54-6.05 83.84-10.35L83.84-10.35Q83.34-10.4 82.44-10.4L82.44-10.4Q78.44-10.4 76.72-8.72 74.99-7.05 74.99-4.85L74.99-4.85Q74.99-3.4 75.84-2.35 76.69-1.3 78.09-1.3ZM99.44-26.9L99.44-26.9 100.19-26.9 100.19-21.6 105.19-21.6 105.19-20.7 100.19-20.7 100.19-3.75Q100.19-1.05 101.69-1.05L101.69-1.05Q102.39-1.05 102.92-1.7 103.44-2.35 103.44-3.2 103.44-4.05 103.29-4.8L103.29-4.8 104.24-4.95Q104.44-4.2 104.44-3.3L104.44-3.3Q104.44-1.5 103.37-0.45 102.29 0.6 100.54 0.6 98.79 0.6 97.69-0.83 96.59-2.25 96.59-5.1L96.59-5.1 96.59-20Q96.59-20.7 95.89-20.7L95.89-20.7 93.54-20.7 93.54-21.6 95.99-21.6Q97.59-21.6 99.44-26.9ZM118.29-22.2L118.29-22.2Q121.74-22.2 123.74-19.9 125.74-17.6 125.74-13.15L125.74-13.15Q125.74-12.25 125.64-11.15L125.64-11.15 111.99-11.15 111.99-10.8Q111.99-6.05 113.71-3.33 115.44-0.6 118.16-0.6 120.89-0.6 122.64-2 124.39-3.4 125.04-6L125.04-6 125.99-5.8Q125.39-2.75 123.24-1.07 121.09 0.6 118.29 0.6L118.29 0.6Q113.94 0.6 111.06-2.45 108.19-5.5 108.19-10.78 108.19-16.05 111.09-19.13 113.99-22.2 118.29-22.2ZM122.29-14.85L122.29-14.85Q122.29-21 117.69-21L117.69-21Q115.39-21 113.76-18.5 112.14-16 112.04-12.15L112.04-12.15 122.09-12.15Q122.29-13.85 122.29-14.85ZM145.09 0.3L145.09 0.3 145.09-4Q142.29 0.6 138.46 0.6 134.64 0.6 132.44-2.45 130.24-5.5 130.24-10.75 130.24-16 133.04-19.1 135.84-22.2 140.09-22.2L140.09-22.2Q142.84-22.2 145.09-20.85L145.09-20.85 145.09-30.8Q145.09-31.5 144.39-31.5L144.39-31.5 142.04-31.5 142.04-32.4 144.49-32.4Q147.49-32.4 148.69-32.7L148.69-32.7 148.69-1.6Q148.69-0.9 149.39-0.9L149.39-0.9 151.74-0.9 151.74 0 149.29 0Q146.29 0 145.09 0.3ZM140.21-20.7Q137.64-20.7 135.84-18.13 134.04-15.55 134.04-10.95 134.04-6.35 135.51-3.83 136.99-1.3 139.24-1.3L139.24-1.3Q142.49-1.3 145.09-5.85L145.09-5.85 145.09-19.3Q142.79-20.7 140.21-20.7ZM174.63-29.9L174.63-29.9 174.63-6.35Q174.63 7.95 167.23 7.95L167.23 7.95Q164.48 7.95 163.23 6.58 161.98 5.2 161.98 3.7L161.98 3.7Q161.98 0.6 163.83 0.6L163.83 0.6Q165.38 0.6 166.28 1.35L166.28 1.35Q165.48 2.75 165.48 4.1L165.48 4.1Q165.48 6.75 167.68 6.75L167.68 6.75Q170.53 6.75 170.53 2.25L170.53 2.25 170.53-30Q170.53-30.6 169.83-30.6L169.83-30.6 167.48-30.6 167.48-31.5 177.68-31.5 177.68-30.6 175.33-30.6Q174.63-30.6 174.63-29.9ZM200.53-21.9L200.53-21.9 200.53-1.6Q200.53-0.9 201.23-0.9L201.23-0.9 203.58-0.9 203.58 0 201.13 0Q198.13 0 196.93 0.3L196.93 0.3 196.93-6.45Q195.23 0.6 189.43 0.6L189.43 0.6Q186.83 0.6 185.03-1.28 183.23-3.15 183.23-7L183.23-7 183.23-20Q183.23-20.7 182.53-20.7L182.53-20.7 180.18-20.7 180.18-21.6 182.63-21.6Q185.63-21.6 186.83-21.9L186.83-21.9 186.83-6.35Q186.83-3.8 187.95-2.58 189.08-1.35 190.93-1.35L190.93-1.35Q193.58-1.35 195.25-4.58 196.93-7.8 196.93-13.85L196.93-13.85 196.93-20Q196.93-20.7 196.23-20.7L196.23-20.7 193.88-20.7 193.88-21.6 196.33-21.6Q199.33-21.6 200.53-21.9ZM213.58-13.55L213.58-13.55 218.78-11.6Q220.63-10.9 221.6-9.47 222.58-8.05 222.58-6.3L222.58-6.3Q222.58-3.6 220.43-1.5 218.28 0.6 214.65 0.6 211.03 0.6 207.83-0.75L207.83-0.75Q208.13-1.95 208.13-4.95L208.13-4.95 208.13-6.95 209.03-6.95 209.38-4.35Q209.83-0.6 214.63-0.6L214.63-0.6Q216.78-0.6 218.2-1.93 219.63-3.25 219.63-4.95L219.63-4.95Q219.63-7.3 216.78-8.35L216.78-8.35 211.58-10.3Q209.83-10.95 208.93-12.35 208.03-13.75 208.03-15.5L208.03-15.5Q208.03-18.15 209.93-20.18 211.83-22.2 214.7-22.2 217.58-22.2 221.18-20.85L221.18-20.85Q220.88-19.65 220.88-16.65L220.88-16.65 220.88-14.65 219.98-14.65 219.63-17.25Q219.23-20.85 215.08-20.85L215.08-20.85Q213.23-20.85 212.03-19.7 210.83-18.55 210.83-17L210.83-17Q210.83-14.6 213.58-13.55ZM231.72-26.9L231.72-26.9 232.47-26.9 232.47-21.6 237.47-21.6 237.47-20.7 232.47-20.7 232.47-3.75Q232.47-1.05 233.97-1.05L233.97-1.05Q234.67-1.05 235.2-1.7 235.72-2.35 235.72-3.2 235.72-4.05 235.57-4.8L235.57-4.8 236.52-4.95Q236.72-4.2 236.72-3.3L236.72-3.3Q236.72-1.5 235.65-0.45 234.57 0.6 232.82 0.6 231.07 0.6 229.97-0.83 228.87-2.25 228.87-5.1L228.87-5.1 228.87-20Q228.87-20.7 228.17-20.7L228.17-20.7 225.82-20.7 225.82-21.6 228.27-21.6Q229.87-21.6 231.72-26.9ZM255.07-30.6L252.72-30.6 252.72-31.5 268.27-31.5Q272.22-31.5 273.82-31.95L273.82-31.95Q273.37-29.9 273.37-26.25L273.37-26.25 273.37-23.9 272.22-23.9 271.47-29Q271.37-30.1 270.07-30.1L270.07-30.1 259.87-30.1 259.87-16.45 269.72-16.45Q270.22-16.45 270.32-17.15L270.32-17.15 270.57-20.25 271.47-20.25 271.47-11.25 270.57-11.25 270.32-14.35Q270.22-15.05 269.72-15.05L269.72-15.05 259.87-15.05 259.87-1.6Q259.87-0.9 260.57-0.9L260.57-0.9 264.92-0.9 264.92 0 252.72 0 252.72-0.9 255.07-0.9Q255.77-0.9 255.77-1.6L255.77-1.6 255.77-30Q255.77-30.6 255.07-30.6L255.07-30.6ZM279.12-2.45Q276.32-5.5 276.32-10.8 276.32-16.1 279.12-19.15 281.92-22.2 286.42-22.2 290.92-22.2 293.74-19.15 296.57-16.1 296.57-10.8 296.57-5.5 293.74-2.45 290.92 0.6 286.42 0.6 281.92 0.6 279.12-2.45ZM281.92-18.32Q280.12-15.55 280.12-10.8 280.12-6.05 281.92-3.28 283.72-0.5 286.42-0.5 289.12-0.5 290.94-3.28 292.77-6.05 292.77-10.8 292.77-15.55 290.94-18.32 289.12-21.1 286.42-21.1 283.72-21.1 281.92-18.32ZM313.31-22.2Q315.26-22.2 316.49-20.55 317.71-18.9 317.71-16.4 317.71-13.9 315.66-13.9L315.66-13.9Q314.46-13.9 313.71-14.65L313.71-14.65Q314.36-16.1 314.36-17.6L314.36-17.6Q314.36-20.25 312.16-20.25L312.16-20.25Q310.31-20.25 308.89-17.18 307.46-14.1 307.46-8.25L307.46-8.25 307.46-1.6Q307.46-0.9 308.16-0.9L308.16-0.9 311.51-0.9 311.51 0 300.81 0 300.81-0.9 303.16-0.9Q303.86-0.9 303.86-1.6L303.86-1.6 303.86-20Q303.86-20.7 303.16-20.7L303.16-20.7 300.81-20.7 300.81-21.6 303.26-21.6Q306.26-21.6 307.46-21.9L307.46-21.9 307.46-15.5Q308.26-18.95 309.81-20.58 311.36-22.2 313.31-22.2ZM349.76-30.6L349.76-31.5 356.56-31.5 356.56-30.6 354.71-30.6Q354.01-30.6 353.76-29.9L353.76-29.9 346.11-11.45 346.11-1.6Q346.11-0.9 346.81-0.9L346.81-0.9 350.41-0.9 350.41 0 337.71 0 337.71-0.9 341.31-0.9Q342.01-0.9 342.01-1.6L342.01-1.6 342.01-11.5 333.51-29.9Q333.16-30.6 332.56-30.6L332.56-30.6 330.71-30.6 330.71-31.5 340.26-31.5 340.26-30.6 337.76-30.6 345.41-14 352.26-30.6 349.76-30.6ZM356.86-2.45Q354.06-5.5 354.06-10.8 354.06-16.1 356.86-19.15 359.66-22.2 364.16-22.2 368.66-22.2 371.48-19.15 374.31-16.1 374.31-10.8 374.31-5.5 371.48-2.45 368.66 0.6 364.16 0.6 359.66 0.6 356.86-2.45ZM359.66-18.32Q357.86-15.55 357.86-10.8 357.86-6.05 359.66-3.28 361.46-0.5 364.16-0.5 366.86-0.5 368.68-3.28 370.51-6.05 370.51-10.8 370.51-15.55 368.68-18.32 366.86-21.1 364.16-21.1 361.46-21.1 359.66-18.32ZM397.65-21.9L397.65-21.9 397.65-1.6Q397.65-0.9 398.35-0.9L398.35-0.9 400.7-0.9 400.7 0 398.25 0Q395.25 0 394.05 0.3L394.05 0.3 394.05-6.45Q392.35 0.6 386.55 0.6L386.55 0.6Q383.95 0.6 382.15-1.28 380.35-3.15 380.35-7L380.35-7 380.35-20Q380.35-20.7 379.65-20.7L379.65-20.7 377.3-20.7 377.3-21.6 379.75-21.6Q382.75-21.6 383.95-21.9L383.95-21.9 383.95-6.35Q383.95-3.8 385.08-2.58 386.2-1.35 388.05-1.35L388.05-1.35Q390.7-1.35 392.38-4.58 394.05-7.8 394.05-13.85L394.05-13.85 394.05-20Q394.05-20.7 393.35-20.7L393.35-20.7 391-20.7 391-21.6 393.45-21.6Q396.45-21.6 397.65-21.9ZM405.03-0.23Q404.2-1.05 404.2-2.2 404.2-3.35 405.03-4.17 405.85-5 407-5 408.15-5 408.98-4.17 409.8-3.35 409.8-2.2 409.8-1.05 408.98-0.23 408.15 0.6 407 0.6 405.85 0.6 405.03-0.23Z" opacity="1" transform="matrix(1,0,0,1,0,0)" fill="#f186ba" class="undefined-text-1" data-fill-palette-color="secondary" id="text-1"></path></svg></g></svg></g></svg></g></svg></g><g><svg viewBox="0 0 125.35487454571545 125.35487454571545" height="125.35487454571545" width="125.35487454571545"><g><svg xmlns="http://www.w3.org/2000/svg" data-name="Layer 1" viewBox="9.895510000000002 9.895510000000002 80.20898 80.20898" x="0" y="0" height="125.35487454571545" width="125.35487454571545" class="icon-icon-0" data-fill-palette-color="accent" id="icon-0"><path d="M50 90.104A40.104 40.104 0 1 1 90.104 50 40.15 40.15 0 0 1 50 90.104Zm0-76.5A36.396 36.396 0 1 0 86.396 50 36.437 36.437 0 0 0 50 13.604Zm7.696 58.402a15.656 15.656 0 0 1-6.067-1.473 8.206 8.206 0 0 0-2.41-0.749 13.604 13.604 0 0 0-2.967 0.654A21.074 21.074 0 0 1 40.56 71.499c-3.997 0-6.58-2.873-6.58-7.318 0-10.796 10.548-20.937 16.907-20.937 9.11 0 15.005 15.278 15.005 20.566C65.892 69.095 62.981 72.006 57.696 72.006ZM49.219 67.001a9.501 9.501 0 0 1 3.457 0.954 13.201 13.201 0 0 0 5.02 1.268c3.744 0 5.413-1.669 5.413-5.413 0-4.871-5.551-17.782-12.222-17.783-5.063 0-14.124 9.15-14.124 18.154 0 1.693 0.493 4.535 3.797 4.535a18.991 18.991 0 0 0 4.927-0.954A14.642 14.642 0 0 1 49.219 67.001ZM68.589 56.605c-3.757 0-5.835-4.813-5.835-8.139 0-3.541 2.511-7.286 4.885-7.286 3.966 0 5.956 5.227 5.956 8.152C73.595 52.256 72.262 56.605 68.589 56.605ZM67.682 43.964c-0.561 0.194-2.145 2.199-2.145 4.502 0 2.361 1.437 5.356 3.052 5.356 1.552 0 2.223-2.974 2.223-4.49C70.812 47.508 69.493 44.018 67.682 43.964Zm-9.104 0.654c-4.106 0-8.29-4.231-8.29-8.385 0-3.777 2.501-8.339 5.607-8.338 5.548 0 8.061 7.924 8.06 10.33C63.955 41.304 62.273 44.618 58.578 44.618ZM55.895 30.678c-0.773 0-2.823 2.523-2.823 5.555 0 2.565 2.985 5.602 5.506 5.602s2.594-3.241 2.594-3.61C61.172 36.95 59.401 30.678 55.895 30.678ZM31.283 56.496c-3.67 0-5.002-4.35-5.002-7.273 0-2.767 2.192-8.152 6.21-8.153 2.38 0 4.993 3.87 4.994 7.396C37.485 52.18 34.776 56.496 31.283 56.496Zm1.162-12.642c-1.956 0.059-3.381 3.779-3.381 5.369 0 1.517 0.67 4.49 2.219 4.49 1.729 0 3.419-3.005 3.418-5.247C34.702 46.281 33.104 44.084 32.445 43.854Zm8.914 1.069c-3.693 0-5.376-3.314-5.376-6.394 0-2.406 2.513-10.33 8.059-10.33 3.106 0 5.607 4.562 5.608 8.339C49.65 40.691 45.465 44.923 41.359 44.923Zm2.683-13.941c-3.505 0-5.276 6.272-5.276 7.547 0 0.369 0.072 3.61 2.593 3.611 2.522 0 5.508-3.036 5.508-5.602C46.867 33.506 44.816 30.982 44.042 30.982Z" fill="#f186ba" data-fill-palette-color="accent"></path></svg></g></svg></g></svg></g><defs></defs></svg><rect width="395.52" height="89.88181483724469" fill="none" stroke="none" visibility="hidden"></rect></g></svg></g></svg>